<?xml version="1.0" encoding="utf-8"?>
<!-- Generator: Adobe Illustrator 18.1.0, SVG Export Plug-In . SVG Version: 6.00 Build 0)  -->
<svg version="1.1" id="图层_1" xmlns="http://www.w3.org/2000/svg" xmlns:xlink="http://www.w3.org/1999/xlink" x="0px" y="0px"
	 viewBox="7 -0.8 16 16" enable-background="new 7 -0.8 16 16" xml:space="preserve">
<path d="M15,15.2c-1.9,0-3.7-0.7-5-2.1c-1.3-1.3-2.1-3.1-2.1-5s0.7-3.7,2.1-5c0.4-0.4,1.1-0.4,1.6,0s0.4,1.1,0,1.6
	C10.5,5.5,10,6.7,10,8s0.5,2.6,1.4,3.5c0.9,0.9,2.2,1.4,3.5,1.4s2.6-0.5,3.5-1.4c0.9-0.9,1.4-2.2,1.4-3.5s-0.5-2.6-1.4-3.5
	C18,4.1,18,3.4,18.5,3c0.4-0.4,1.1-0.4,1.6,0c1.3,1.3,2.1,3.1,2.1,5s-0.7,3.7-2.1,5C18.7,14.4,16.9,15.2,15,15.2z M15,6.9
	c-0.6,0-1.1-0.5-1.1-1.1V0.3c0-0.6,0.5-1.1,1.1-1.1c0.6,0,1.1,0.5,1.1,1.1v5.5C16.1,6.4,15.6,6.9,15,6.9z"/>
</svg>
